<svg xmlns="http://www.w3.org/2000/svg" width="64" height="64" viewBox="0 0 64 64">
    <g fill="none" fill-rule="evenodd">
        <g fill="#888">
            <g>
                <g>
                    <path d="M26.667 9.333C36.24 9.333 44 17.093 44 26.667c0 4.307-1.57 8.247-4.17 11.278l14.446 14.446-1.885 1.885L37.945 39.83C34.914 42.43 30.974 44 26.667 44c-9.573 0-17.334-7.76-17.334-17.333 0-9.573 7.76-17.334 17.334-17.334zm0 2.667C18.567 12 12 18.566 12 26.667c0 8.1 6.566 14.666 14.667 14.666 8.1 0 14.666-6.566 14.666-14.666 0-8.1-6.566-14.667-14.666-14.667z" transform="translate(-1486 -262) translate(370 240) translate(1116 22)"/>
                </g>
            </g>
        </g>
    </g>
</svg>
